<svg xmlns="http://www.w3.org/2000/svg" viewBox="0 0 100 120" width="100%" height="100%" fill="none" stroke="#5D6C42" stroke-width="4" stroke-linecap="round" stroke-linejoin="round">
    <!-- Shield Outline -->
    <path d="M 5 5 L 95 5 L 95 70 C 95 100 50 115 50 115 C 50 115 5 100 5 70 Z" />
    <!-- Sun top left -->
    <path d="M 5 35 C 20 35 35 20 35 5" />
    <path d="M 5 20 C 15 20 20 15 20 5" />
    <!-- Buildings -->
    <path d="M 48 40 L 48 105" />
    <path d="M 58 30 L 58 105" />
    <path d="M 75 40 L 75 105" />
    <path d="M 48 40 L 58 35 L 75 45 L 85 45" />
    <path d="M 75 40 L 58 30" />
    <!-- Arc from buildings to right edge -->
    <path d="M 58 85 C 75 75 95 75 95 75" />
    <!-- Leaf -->
    <path d="M 48 85 C 30 65 15 85 15 85 C 15 85 25 105 48 115" />
</svg>
